# Blender 3.6.0
# www.blender.org
mtllib screens.mtl
o BezierCurve
v -1.988889 -0.999965 -0.006305
v -2.011111 0.999965 0.006305
v -1.579805 -0.997445 -0.231459
v -1.601231 1.002490 -0.219285
v -1.212817 -0.995387 -0.415633
v -1.232907 1.004555 -0.404119
v -0.879751 -0.993791 -0.558751
v -0.897525 1.006162 -0.548209
v -0.572515 -0.992655 -0.660797
v -0.586386 1.007311 -0.651506
v -0.283011 -0.991979 -0.721891
v -0.290803 1.008001 -0.713823
v -0.002673 -0.991757 -0.742326
v -0.002551 1.008229 -0.734802
v 0.277821 -0.991986 -0.722267
v 0.285835 1.007994 -0.714212
v 0.567788 -0.992669 -0.661480
v 0.581826 1.007298 -0.652222
v 0.875784 -0.993808 -0.559607
v 0.893655 1.006145 -0.549124
v 1.209902 -0.995404 -0.416461
v 1.230018 1.004539 -0.405039
v 1.578229 -0.997457 -0.231997
v 1.599615 1.002479 -0.219949
v 1.988939 -0.999965 -0.006225
v 2.011061 0.999965 0.006225
vn 0.4822 -0.0002 0.8761
vn 0.4652 -0.0004 0.8852
vn 0.4212 -0.0010 0.9069
vn 0.3541 -0.0018 0.9352
vn 0.2593 -0.0027 0.9658
vn 0.1381 -0.0035 0.9904
vn 0.0007 -0.0038 1.0000
vn -0.1368 -0.0034 0.9906
vn -0.2580 -0.0027 0.9661
vn -0.3530 -0.0018 0.9356
vn -0.4204 -0.0010 0.9074
vn -0.4646 -0.0004 0.8855
vn -0.4817 -0.0001 0.8763
vt 0.000000 1.000000
vt 0.000000 0.000000
vt 0.083333 0.000000
vt 0.083333 1.000000
vt 0.166667 0.000000
vt 0.166667 1.000000
vt 0.250000 0.000000
vt 0.250000 1.000000
vt 0.333333 0.000000
vt 0.333333 1.000000
vt 0.416667 0.000000
vt 0.416667 1.000000
vt 0.500000 0.000000
vt 0.500000 1.000000
vt 0.583333 0.000000
vt 0.583333 1.000000
vt 0.666667 0.000000
vt 0.666667 1.000000
vt 0.750000 0.000000
vt 0.750000 1.000000
vt 0.833333 0.000000
vt 0.833333 1.000000
vt 0.916667 0.000000
vt 0.916667 1.000000
vt 1.000000 0.000000
vt 1.000000 1.000000
s 1
f 2/1/1 1/2/1 3/3/2 4/4/2
f 4/4/2 3/3/2 5/5/3 6/6/3
f 6/6/3 5/5/3 7/7/4 8/8/4
f 8/8/4 7/7/4 9/9/5 10/10/5
f 10/10/5 9/9/5 11/11/6 12/12/6
f 12/12/6 11/11/6 13/13/7 14/14/7
f 14/14/7 13/13/7 15/15/8 16/16/8
f 16/16/8 15/15/8 17/17/9 18/18/9
f 18/18/9 17/17/9 19/19/10 20/20/10
f 20/20/10 19/19/10 21/21/11 22/22/11
f 22/22/11 21/21/11 23/23/12 24/24/12
f 24/24/12 23/23/12 25/25/13 26/26/13
